<svg xmlns="http://www.w3.org/2000/svg" viewBox="0 0 1858.54 1372.23"><defs><style>.cls-1{fill:#2a442a;}.cls-2{fill:#232323;}.cls-3{fill:none;stroke:#232323;stroke-miterlimit:10;stroke-width:11px;}.cls-4{fill:#385e38;}.cls-5{fill:#233a23;}.cls-6{fill:#e8b5f4;}.cls-7{fill:#f26883;}.cls-8{fill:#ecd3f2;}.cls-9{fill:#efdd8d;}</style></defs><title>toeh</title><g id="Layer_1" data-name="Layer 1"><path class="cls-1" d="M1020,1273.21l-4.51,5.84a163.29,163.29,0,0,0-21.11,25.9s-4.59,24,51.14,26.08c0,0,137-35.92,179.66-26.74,0,0,28.19,3.28,36.06,59,0,0,26.23,22.3,43.28-21s159.33-43.93,159.33-43.93l56.29,27.69h0c17.58,2.58,30.12,5,30.12,5,81.71-3.5,147.08-80.54,147.08-80.54l37.33-44.63a90.07,90.07,0,0,0,20.08-45.11c4.93-34.7,12.75-93,10.3-97a46.87,46.87,0,0,1-2.32-7l9.86-3.59c29.39-12.22,50.24-47.48,64.62-85,22.87-59.66,24.69-125.34,6.11-186.48L1837,761c-18-74.74-87.63-130.38-87.63-130.38l-102.21-76.48a109.35,109.35,0,0,1-37.68-51.37l-6.28-17.91A106.1,106.1,0,0,0,1565,433.78L1520.88,402A83.84,83.84,0,0,1,1489,356l-28.13-103.15A127.38,127.38,0,0,0,1420,189l-.11-.09a85.65,85.65,0,0,0-47.16-19.75l-55.2-5.16a156.48,156.48,0,0,0-79.75,13.53L1179,204.45A188.1,188.1,0,0,0,1106.55,263s-56.35-17.44-177.25-17.44h0C808.35,245.57,752,263,752,263a188,188,0,0,0-72.45-58.56l-58.79-26.93A156.42,156.42,0,0,0,541,164l-55.21,5.16a85.71,85.71,0,0,0-47.16,19.75l-.11.09a127.36,127.36,0,0,0-40.81,63.88L369.58,356a83.79,83.79,0,0,1-31.92,46l-44.13,31.76a106.12,106.12,0,0,0-38.18,51.05l-6.28,17.91a109.26,109.26,0,0,1-37.67,51.37L109.18,630.59S39.6,686.23,21.55,761l-6.3,20.73C-3.32,842.84-1.5,908.52,21.37,968.18c14.38,37.51,35.22,72.77,64.62,85l9.86,3.59a48.18,48.18,0,0,1-2.32,7c-2.45,4.08,5.37,62.34,10.29,97a90,90,0,0,0,20.09,45.11l37.32,44.63s65.37,77,147.09,80.54c0,0,12.54-2.37,30.11-5h0l56.3-27.69s142.28.66,159.33,43.93,43.27,21,43.27,21c7.87-55.73,36.06-59,36.06-59C676,1295.11,813.05,1331,813.05,1331c55.73-2.1,51.14-26.08,51.14-26.08a163.26,163.26,0,0,0-21.1-25.9l4.84-2.1,62.45-21a59.15,59.15,0,0,1,37.78,0Z"/><circle class="cls-2" cx="1291.24" cy="666.74" r="36.15"/><path class="cls-2" d="M1039.53,352.86l27.65-38.33,27.75-38.26,6.93-9.56,3.48-4.78,3.59-4.76a190,190,0,0,1,53.57-47c1.73-1,3.45-2,5.2-2.95s3.53-1.88,5.31-2.78l5.38-2.61,5.35-2.51,21.4-10,21.4-10,10.72-5c3.65-1.66,7.35-3.25,11.13-4.62a156.09,156.09,0,0,1,23.16-6.7,163.47,163.47,0,0,1,23.94-3.07c2-.15,4-.14,6-.22s4,0,6,0,4,.12,6,.27,4.05.27,6,.45l23.54,2,23.54,2.06,5.88.51c2,.2,4.09.41,6.12.73a90.8,90.8,0,0,1,12.08,2.69,88.12,88.12,0,0,1,22.49,10.26,92.33,92.33,0,0,1,10,7.35c1.53,1.35,3.11,2.63,4.57,4l2.23,2.09,2.15,2.17c2.89,2.88,5.56,6,8.17,9.08s5,6.43,7.27,9.83a129.45,129.45,0,0,1,11.68,21.45l1.19,2.82,1.1,2.86c.76,1.89,1.36,3.84,2,5.77s1.19,3.92,1.76,5.85l1.58,5.69,6.3,22.77,12.53,45.57,6.25,22.79,1.56,5.7c.53,1.8,1,3.57,1.67,5.32a79.21,79.21,0,0,0,25.42,35.8c2.84,2.22,6.16,4.53,9.34,6.83l38.41,27.58a110.73,110.73,0,0,1,37.52,48.14c.41.94.75,1.92,1.11,2.88s.74,2,1,2.87l2,5.58,3.89,11.15a112.33,112.33,0,0,0,4.27,10.46,104.55,104.55,0,0,0,27.34,35.5c1.42,1.23,2.93,2.36,4.41,3.52l4.73,3.55,9.45,7.09,18.9,14.22,37.75,28.47,18.88,14.23,9.43,7.12,2.36,1.78.6.45.67.55,1.17,1c1.54,1.31,3,2.64,4.53,4a323.36,323.36,0,0,1,33,34.64,288.61,288.61,0,0,1,27.31,39.33A233.86,233.86,0,0,1,1829.56,728c.78,1.85,1.63,3.67,2.35,5.54l2.19,5.61,2,5.69c.68,1.9,1.2,3.84,1.8,5.76.28,1,.61,1.92.85,2.88l.75,2.88c.49,1.92,1,3.86,1.55,5.72l3.35,11.27c1.12,3.76,2.26,7.48,3.28,11.36s2.16,7.67,3,11.57a292.19,292.19,0,0,1,6.63,94.79,285.6,285.6,0,0,1-8.47,46.81,293.54,293.54,0,0,1-16,44.68c-6.61,14.37-14.16,28.41-23.87,40.95a114.9,114.9,0,0,1-16.24,17.26,72.94,72.94,0,0,1-20.1,12.35,72.55,72.55,0,0,0,19.6-12.92,113.54,113.54,0,0,0,15.54-17.6c9.25-12.66,16.37-26.75,22.53-41.15A301.7,301.7,0,0,0,1845,937a281.8,281.8,0,0,0,7.33-46.26,287.65,287.65,0,0,0-8.1-92.81c-.87-3.8-2-7.51-3.11-11.26s-2.27-7.51-3.43-11.29L1834.21,764c-.62-1.9-1.11-3.78-1.62-5.67l-.77-2.83c-.25-.94-.57-1.85-.86-2.77-.6-1.83-1.12-3.69-1.79-5.5l-2-5.44-2.17-5.38c-.71-1.79-1.56-3.54-2.33-5.31a226.93,226.93,0,0,0-10.7-20.59,280.9,280.9,0,0,0-27-37.89,321.06,321.06,0,0,0-32.39-33.47c-1.45-1.28-2.91-2.55-4.38-3.78l-1.1-.91-.47-.38-.59-.44-2.37-1.76-9.48-7-19-14.08-37.93-28.15-18.94-14.1-9.47-7.06-4.73-3.53c-1.62-1.27-3.27-2.5-4.83-3.84a114.5,114.5,0,0,1-30-38.72,122.36,122.36,0,0,1-4.68-11.4l-3.92-11.14-2-5.57c-.33-1-.66-1.79-1-2.68s-.64-1.77-1-2.63a101.06,101.06,0,0,0-34.26-43.76l-38.3-27.65c-3.2-2.32-6.35-4.5-9.71-7.14a87.65,87.65,0,0,1-9.18-8.47,87.87,87.87,0,0,1-19.29-31.84c-.71-2-1.28-4-1.86-6l-1.54-5.7-6.19-22.8L1464.13,283,1458,260.18l-1.54-5.71c-.53-1.85-1-3.66-1.6-5.47s-1.15-3.62-1.85-5.39l-1-2.67-1.09-2.63a120.07,120.07,0,0,0-10.74-20.06c-2.07-3.2-4.36-6.23-6.7-9.22s-4.9-5.83-7.57-8.54l-2-2-2.07-2c-1.35-1.34-2.83-2.55-4.24-3.82a82.52,82.52,0,0,0-9-6.73,81.37,81.37,0,0,0-20.28-9.47,82.22,82.22,0,0,0-10.93-2.58c-1.86-.32-3.69-.52-5.61-.74l-5.87-.58-23.52-2.35-23.51-2.34c-2-.21-3.86-.34-5.79-.51s-3.84-.21-5.76-.32-3.84-.09-5.76-.09-3.85,0-5.77.13a154,154,0,0,0-45.22,8.72c-3.64,1.26-7.21,2.72-10.75,4.25l-10.78,4.81-21.56,9.66L1186,204.18l-5.39,2.42-5.29,2.46c-1.75.84-3.47,1.74-5.21,2.61s-3.42,1.85-5.13,2.77a185.4,185.4,0,0,0-37.5,27.65,188.37,188.37,0,0,0-15.89,17.16l-3.63,4.6-3.59,4.69-7.18,9.38-28.76,37.51Z"/><path class="cls-2" d="M1568.38,495.9a330.67,330.67,0,0,1,17.55,39.35,420,420,0,0,1,13,41.2,372.25,372.25,0,0,1,8.44,42.5c1,7.17,1.72,14.38,2.26,21.62s.71,14.49.71,21.76a245.65,245.65,0,0,1-3.93,43.44,207.67,207.67,0,0,1-5.09,21.28,195,195,0,0,1-7.44,20.58A176.41,176.41,0,0,1,1584,767.1a172,172,0,0,1-12.36,17.95l-3.45,4.2-3.62,4.06c-1.18,1.37-2.45,2.65-3.72,3.94s-2.49,2.62-3.84,3.82a162.25,162.25,0,0,1-16.58,13.79c2.51-2.57,5.18-4.94,7.58-7.6,1.22-1.31,2.48-2.56,3.67-3.89l3.52-4A176.08,176.08,0,0,0,1568,782.44a181.06,181.06,0,0,0,19.3-37.47c9.94-26.31,13.86-54.54,14-82.68a352.08,352.08,0,0,0-2.42-42.28c-1.59-14.06-4-28-6.86-42s-6.33-27.73-10.33-41.42S1573.39,509.33,1568.38,495.9Z"/><path class="cls-2" d="M1314.7,943.56a82.48,82.48,0,0,1,1.3-13.23,127.4,127.4,0,0,1,3-12.93,133.75,133.75,0,0,1,9.85-24.71c1.07-2,2.13-3.92,3.27-5.84s2.36-3.8,3.59-5.66a105.7,105.7,0,0,1,8.26-10.6,86.06,86.06,0,0,1,9.77-9.23,59.41,59.41,0,0,1,11.34-7.08c-2.84,3.44-5.6,6.75-8.18,10.18s-5,6.91-7.33,10.46-4.52,7.15-6.63,10.81c-1,1.85-2.13,3.65-3.1,5.53s-2,3.72-3,5.6c-3.92,7.52-7.63,15.18-11.21,23S1318.49,935.54,1314.7,943.56Z"/><path class="cls-2" d="M1305.37,1010.71a29,29,0,0,1,4.73,15.39,35.22,35.22,0,0,1-.59,8.26c-.2,1.38-.58,2.71-.9,4.06s-.8,2.66-1.27,4c-4,10.39-10.77,19.43-18.54,27.09a154.92,154.92,0,0,1-25.56,20.22c-2.29,1.44-4.54,3-6.89,4.29l-6.89,4a68.85,68.85,0,0,0-12,8.87,73.61,73.61,0,0,0-5.29,5.31c-1.64,1.89-3.24,3.81-4.69,5.85s-2.83,4.14-4.12,6.28-2.41,4.4-3.43,6.69a115.81,115.81,0,0,0-9,29.33,78.55,78.55,0,0,0-.9,15.23,54.69,54.69,0,0,1-1.58,16.6c-.73,2.61-1.53,5.2-2.44,7.75a62.67,62.67,0,0,1-3.17,7.52,34,34,0,0,1-4.47,6.87,15.14,15.14,0,0,1-3.11,2.71,8.13,8.13,0,0,1-3.83,1.31,10.3,10.3,0,0,0,5.85-4.84,31.89,31.89,0,0,0,3.26-7,89.59,89.59,0,0,0,3.59-15.22,50.22,50.22,0,0,0,0-15.14,69.85,69.85,0,0,1-.57-8.3c0-1.39,0-2.77,0-4.16s.13-2.77.28-4.14c.23-2.76.64-5.49,1.1-8.21s1.1-5.41,1.79-8.07,1.47-5.3,2.37-7.89,1.8-5.13,2.9-7.73a77,77,0,0,1,33-37.28l6.94-3.89c1.15-.62,2.27-1.28,3.39-2l3.36-2c1.13-.65,2.24-1.34,3.33-2l3.29-2.11c2.19-1.41,4.3-2.92,6.46-4.38,4.17-3.07,8.35-6.16,12.19-9.61,2-1.67,3.79-3.49,5.66-5.27l2.65-2.79c.87-1,1.69-1.93,2.54-2.89a63.37,63.37,0,0,0,8.47-12.73c.57-1.14,1.08-2.31,1.58-3.48s.93-2.38,1.25-3.61a37.61,37.61,0,0,0,1.49-7.53,32.88,32.88,0,0,0-.13-7.74A25.81,25.81,0,0,0,1305.37,1010.71Z"/><path class="cls-2" d="M1651.77,846.59q14.24,13.6,28.3,27.37t28.07,27.59a130.83,130.83,0,0,1,13.34,15,129.11,129.11,0,0,1,18.91,35.62c.58,1.59,1,3.22,1.57,4.83s.93,3.28,1.38,4.89l2.48,9.51,9.93,38,5.07,19c1.7,6.32,3.37,12.64,5.12,18.91.88,3.13,1.76,6.27,2.7,9.29.23.76.46,1.55.7,2.22l.36,1,.17.51a.54.54,0,0,1,.07.13s0,.09,0,.15v0s.06.12.16.33a9.54,9.54,0,0,1,.49,1.14c.07.19.13.39.19.58a2.93,2.93,0,0,1,.07.34l.11.56c.06.36.14.8.15,1,.12,1.15.14,2.09.16,3,0,3.62-.19,6.94-.41,10.3s-.51,6.64-.81,9.94c-1.2,13.17-2.75,26.23-4.41,39.27l-2.54,19.55-1.33,9.76-.68,4.88c-.27,1.7-.52,3.47-.88,5.18a95.66,95.66,0,0,1-16.7,38.35c-1,1.41-2.11,2.81-3.23,4.17-.56.7-1.09,1.33-1.61,1.95l-1.59,1.89-6.32,7.53-12.66,15.07-12.69,15-3.18,3.76c-1.21,1.42-2.32,2.6-3.48,3.87q-3.46,3.7-7,7.22a306.11,306.11,0,0,1-30.45,26.11c-5.34,4-10.85,7.84-16.48,11.47s-11.4,7-17.32,10.21l-4.46,2.33-4.55,2.18c-1.5.75-3,1.43-4.58,2.1s-3.07,1.37-4.62,2c-3.13,1.23-6.22,2.55-9.42,3.62-1.59.55-3.17,1.15-4.77,1.66l-4.83,1.49a152.59,152.59,0,0,1-39.87,6.5l-.54,0-.4-.09c-11.07-2.29-22.3-4.34-33.5-6.19s-22.46-3.61-33.74-5c-5.64-.7-11.3-1.28-17-1.79s-11.33-.91-17-1.07a163.36,163.36,0,0,0-17,.27,67.76,67.76,0,0,0-8.41,1.16l-2.08.47c-.69.16-1.35.41-2,.62a26.39,26.39,0,0,0-3.94,1.63,26.92,26.92,0,0,1,3.8-2c.67-.27,1.32-.59,2-.81l2.06-.64a67.4,67.4,0,0,1,8.43-1.85,141,141,0,0,1,17.16-1.54,334.68,334.68,0,0,1,34.41.71q17.16,1.14,34.23,3.15c11.39,1.37,22.71,2.93,34.09,4.77l-.94-.07a151.7,151.7,0,0,0,18.88-2.61c3.14-.53,6.21-1.41,9.3-2.14,1.54-.39,3.06-.89,4.59-1.33s3.06-.88,4.56-1.42l4.52-1.56c1.5-.53,3-1.15,4.47-1.71,3-1.11,5.89-2.47,8.82-3.72,1.45-.66,2.89-1.37,4.33-2.06s2.88-1.37,4.29-2.13l4.26-2.22,4.18-2.35c5.57-3.17,11-6.49,16.36-10.1s10.54-7.34,15.59-11.31a293.93,293.93,0,0,0,28.76-25.62q3.39-3.4,6.62-6.93c1-1.15,2.16-2.39,3.07-3.47l3.13-3.78,12.54-15.15,12.59-15.11,6.29-7.55,1.57-1.89c.54-.63,1.06-1.26,1.52-1.84,1-1.17,1.88-2.39,2.78-3.61a84.13,84.13,0,0,0,14.52-33.19c.32-1.49.53-3,.78-4.51l.69-4.86,1.39-9.72,2.72-19.44,2.56-19.44c.85-6.47,1.66-13,2.38-19.41.35-3.22.69-6.44,1-9.64s.52-6.41.56-9.35c0-.69,0-1.39-.05-1.87a.67.67,0,0,0,0-.19v0s0-.07,0,0,.05.2.08.3a2.63,2.63,0,0,0,.27.56c.08.12.13.18,0,0l-.12-.24-.44-1-.42-1-.21-.66-.41-1.29c-.29-.88-.51-1.67-.74-2.49-1-3.26-1.77-6.44-2.6-9.65-3.33-12.78-6.3-25.55-9.26-38.35l-8.73-38.39-2.12-9.61c-.36-1.57-.71-3.1-1.09-4.64s-.79-3.07-1.27-4.58a122,122,0,0,0-16.36-34.35,126.55,126.55,0,0,0-12-15.07Q1691,890.7,1677.9,876T1651.77,846.59Z"/><path class="cls-2" d="M1198.25,1179.06a182.07,182.07,0,0,0-34.8-13.93,156.14,156.14,0,0,0-36.74-6.24,106.71,106.71,0,0,0-36.56,4.48,91.82,91.82,0,0,0-31.91,17.62l.83-1.34a12.57,12.57,0,0,0-.19,1.48c-.05.53-.06,1.07-.06,1.61a15.24,15.24,0,0,0,.35,3.17,12.27,12.27,0,0,0,2.6,5.46,13.73,13.73,0,0,0,4.93,3.64,24.72,24.72,0,0,0,6.35,1.77,53.68,53.68,0,0,0,14-.09l3.54-.51c1.18-.18,2.36-.42,3.54-.63s2.36-.49,3.54-.74l3.6-.8a86.66,86.66,0,0,1,15.19-2.23,42,42,0,0,1,15.91,1.89,23.53,23.53,0,0,1,7.5,4.29,20.22,20.22,0,0,1,5.28,7.09,25.09,25.09,0,0,1,2.09,8.33,30.88,30.88,0,0,1,.07,4.19c0,.7-.1,1.39-.18,2.09q-.06.52-.15,1c-.06.38-.11.68-.22,1.17l-.17.78-.53.65c-.41.51-.72.85-1.08,1.25s-.69.74-1,1.11c-.71.71-1.43,1.41-2.18,2.07a44.9,44.9,0,0,1-4.76,3.7,38,38,0,0,1-11,5.25c-1,.24-2,.55-3,.72s-2.06.36-3.11.44-2.14.13-3.09.16-1.73,0-2.61.09c-3.52.17-7.09.58-10.63,1.1a153.56,153.56,0,0,0-77.23,35.77A157.93,157.93,0,0,0,998,1307.38l.65-1.6c0-.19,0,0,0,0a2.26,2.26,0,0,1,0,.25c0,.2,0,.4,0,.61a10.43,10.43,0,0,0,.18,1.32,11.83,11.83,0,0,0,.92,2.66,16,16,0,0,0,3.81,4.8,35.63,35.63,0,0,0,12.25,6.52,84.61,84.61,0,0,0,14.58,3.26c5,.69,10.11,1.1,15.24,1.33l-1.31.14c14.84-3.79,29.65-7.28,44.56-10.57s29.85-6.34,44.88-9.06,30.17-5,45.44-6.64c7.64-.79,15.33-1.37,23.09-1.56s15.59,0,23.65,1.61l-.37-.06.49.08.38.08.72.16c.46.11.88.25,1.32.38.88.25,1.66.61,2.49.92s1.57.74,2.35,1.11,1.47.86,2.21,1.28c.37.22.74.44,1.09.67l1,.74,2,1.5,1.87,1.66a19.55,19.55,0,0,1,1.81,1.71,58.54,58.54,0,0,1,11,16l1.07,2.15c.34.72.61,1.47.91,2.2l1.77,4.42c.55,1.48,1,3,1.45,4.5s1,3,1.36,4.52c.69,3,1.48,6.09,2.08,9.15l1.51,9.22-1.15-2.09a13.73,13.73,0,0,0,1.15.86c.43.3.87.59,1.32.86a25.83,25.83,0,0,0,2.81,1.46,21.32,21.32,0,0,0,5.95,1.74,17.13,17.13,0,0,0,11.61-2.54,24.54,24.54,0,0,0,4.93-4,40.48,40.48,0,0,0,4.17-5.14,68.2,68.2,0,0,0,6.37-12.13l.77-1.74a18.12,18.12,0,0,1,.89-1.76,34.92,34.92,0,0,1,2.09-3.31,42.48,42.48,0,0,1,5.15-5.7,61.82,61.82,0,0,1,12.26-8.44,130.07,130.07,0,0,1,27.14-10.37,276.74,276.74,0,0,1,28.16-6c9.45-1.56,18.95-2.73,28.47-3.62a563.63,563.63,0,0,1,57.2-2.49c-9.53.32-19,1-28.54,1.77s-19,1.77-28.4,3c-18.84,2.55-37.65,5.78-55.73,11.3a132.46,132.46,0,0,0-25.94,10.67,57,57,0,0,0-11.06,8,36.36,36.36,0,0,0-4.32,5,28.88,28.88,0,0,0-1.65,2.77,11.86,11.86,0,0,0-.69,1.44c-.21.5-.41.94-.65,1.55a73.64,73.64,0,0,1-6.61,13.31,46.55,46.55,0,0,1-4.69,6.06,29.77,29.77,0,0,1-6,5.11,24.38,24.38,0,0,1-7.5,3.23,23.42,23.42,0,0,1-8.21.44,28,28,0,0,1-7.77-2.1,31.17,31.17,0,0,1-3.56-1.79c-.58-.33-1.14-.68-1.7-1.05s-1.06-.73-1.73-1.27l-.9-.73-.24-1.35-1.6-8.8c-.62-2.91-1.43-5.76-2.12-8.64-.38-1.43-.91-2.81-1.35-4.21s-.89-2.82-1.42-4.18l-1.7-4c-.29-.67-.55-1.36-.86-2l-1-1.92-1-1.92a15.81,15.81,0,0,0-1.06-1.89l-2.32-3.61c-.83-1.16-1.74-2.24-2.6-3.36a16.16,16.16,0,0,0-1.4-1.57l-1.44-1.53a16.92,16.92,0,0,0-1.53-1.41l-1.56-1.36-1.66-1.2-.83-.6c-.29-.18-.58-.34-.87-.51-.59-.32-1.15-.71-1.75-1s-1.19-.57-1.79-.83-1.21-.49-1.8-.64l-.88-.25-.64-.13-.38-.07c-6.88-1.32-14.37-1.43-21.78-1.2s-14.94.9-22.41,1.75-15,1.92-22.42,3.08-14.92,2.49-22.36,3.85c-14.89,2.75-29.74,5.83-44.53,9.15s-29.57,6.85-44.19,10.64l-.66.17-.65,0a158,158,0,0,1-16.17-1.39,93.63,93.63,0,0,1-16.15-3.68,44.16,44.16,0,0,1-15.32-8.37,24.59,24.59,0,0,1-5.85-7.54,20.43,20.43,0,0,1-1.63-4.78,16.82,16.82,0,0,1-.33-2.59c0-.45,0-.9,0-1.37,0-.24,0-.46,0-.72a9.27,9.27,0,0,1,.12-1l.15-.85.5-.75a167,167,0,0,1,29.91-34.11,157.6,157.6,0,0,1,38.27-24.36,161.45,161.45,0,0,1,43.52-12.66c3.76-.52,7.54-.91,11.4-1.06,1,0,1.94-.07,2.93-.07l2.44-.1c.8-.05,1.58-.22,2.38-.31s1.57-.37,2.36-.54a31.43,31.43,0,0,0,8.93-4.13,39.4,39.4,0,0,0,4-3c.64-.55,1.26-1.12,1.86-1.7l.87-.89c.26-.28.58-.63.75-.83l-.7,1.43c0-.11.09-.42.13-.65l.12-.78c.07-.52.13-1.06.16-1.59a22.93,22.93,0,0,0,0-3.21,18.1,18.1,0,0,0-1.38-6,14.43,14.43,0,0,0-8.64-7.84,35.8,35.8,0,0,0-13.3-1.74,81.58,81.58,0,0,0-14.11,1.85c-9.68,2-19.93,3.92-30.47,2.22a29.89,29.89,0,0,1-7.8-2.4,19.13,19.13,0,0,1-6.74-5.27,17.59,17.59,0,0,1-3.53-7.84,20.46,20.46,0,0,1-.36-4.19c0-.7,0-1.39.12-2.09a18.6,18.6,0,0,1,.36-2.18l.2-.85.63-.49,3.86-2.91,1.92-1.45,2-1.31c1.36-.86,2.7-1.75,4.06-2.6l4.24-2.31a90.29,90.29,0,0,1,17.87-7.06,110.55,110.55,0,0,1,37.89-3.52,156.49,156.49,0,0,1,37,7.64,182.84,182.84,0,0,1,17.59,6.84A160.25,160.25,0,0,1,1198.25,1179.06Z"/><circle class="cls-2" cx="567.3" cy="666.74" r="36.15"/><path class="cls-2" d="M578.62,701.07,601.31,711a190.83,190.83,0,0,0,23,8.79c3.9,1.22,7.86,2.21,11.86,3.28l12,3.18L672,732.57c4,1.06,8,2.1,12,3.24s8,2.37,12,3.69a238,238,0,0,1,23.31,9.27,221.06,221.06,0,0,1,22.21,11.74c7.21,4.25,14.13,9.16,20.83,13.86,13.52,9.47,27.08,18.89,40.53,28.45L823,817.11c1.53,1.07,3.2,2.15,4.88,3.18l2.55,1.53,2.61,1.46q5.24,2.91,10.72,5.43c.91.42,1.8.87,2.72,1.27l2.78,1.18c1.85.77,3.67,1.61,5.57,2.29l5.63,2.15c1.89.69,3.81,1.3,5.71,1.95,3.79,1.37,7.7,2.34,11.55,3.49,1,.3,1.94.54,2.92.76l2.94.7,5.88,1.39a235.2,235.2,0,0,0,48,4.91v11H921v-11a234.49,234.49,0,0,0,48-4.9l5.88-1.39,2.93-.7c1-.23,2-.46,2.92-.76,3.86-1.15,7.77-2.13,11.55-3.5,1.91-.65,3.82-1.26,5.72-1.94l5.62-2.16c1.9-.68,3.72-1.52,5.58-2.29L1012,830c.92-.4,1.82-.85,2.73-1.27,3.64-1.68,7.22-3.49,10.71-5.43l2.61-1.46,2.55-1.53c1.68-1,3.35-2.11,4.88-3.18l20.2-14.28c13.46-9.56,27-19,40.53-28.47,6.7-4.7,13.62-9.6,20.83-13.86a222.18,222.18,0,0,1,22.22-11.74,241,241,0,0,1,23.31-9.27c4-1.31,7.94-2.59,12-3.69s8-2.18,12-3.24l23.92-6.35,12-3.18c4-1.07,7.95-2.06,11.86-3.28a189,189,0,0,0,23-8.79l22.7-9.88-22,11.35a187.29,187.29,0,0,1-22.71,10.16c-3.9,1.44-7.88,2.71-11.8,3.93l-11.81,3.71-23.6,7.43-11.79,3.69c-3.89,1.21-7.72,2.59-11.54,4a234.61,234.61,0,0,0-22.33,9.81c-1.81.9-3.6,1.87-5.4,2.8s-3.57,1.94-5.33,3q-5.29,3-10.43,6.26c-6.89,4.31-13.33,9.13-20,14.06-13.26,9.79-26.51,19.61-39.84,29.3l-20,14.6c-1.83,1.33-3.61,2.51-5.43,3.66l-2.72,1.7-2.77,1.6q-5.54,3.18-11.26,5.93a190.93,190.93,0,0,1-23.48,9.56c-4,1.45-8.07,2.51-12.11,3.73-1,.32-2,.57-3.06.81l-3.08.75-6.15,1.49a245.58,245.58,0,0,1-50.26,5.4v-11h16.48v11a245.58,245.58,0,0,1-50.26-5.4l-6.15-1.48-3.08-.75c-1-.24-2-.5-3.06-.81-4-1.23-8.13-2.28-12.11-3.73A192.63,192.63,0,0,1,839.37,838q-5.72-2.75-11.26-5.92l-2.76-1.61-2.73-1.69c-1.81-1.15-3.59-2.33-5.42-3.66l-20-14.6c-13.33-9.69-26.57-19.52-39.84-29.3-6.67-4.93-13.11-9.75-20-14.06q-5.13-3.27-10.44-6.26c-1.75-1-3.55-2-5.32-3s-3.59-1.9-5.41-2.81a236,236,0,0,0-22.33-9.8c-3.81-1.41-7.65-2.79-11.54-4l-11.78-3.69-23.61-7.43-11.81-3.71c-3.92-1.22-7.9-2.49-11.8-3.93a185.7,185.7,0,0,1-22.71-10.15Z"/><path class="cls-2" d="M819,352.86l-28.86-37.44L761.4,277.91l-7.19-9.38-3.59-4.69L747,259.25a185.76,185.76,0,0,0-53.39-44.82c-1.71-.92-3.41-1.87-5.13-2.76s-3.46-1.77-5.21-2.62L678,206.59l-5.39-2.41L651,194.52l-21.56-9.65-10.78-4.81c-3.54-1.54-7.11-3-10.75-4.26a154.3,154.3,0,0,0-45.22-8.71c-1.92-.12-3.84-.08-5.77-.13s-3.84,0-5.77.08-3.84.17-5.75.33-3.81.29-5.79.51l-23.51,2.34-23.52,2.35-5.87.58c-1.92.22-3.75.42-5.61.74a82.22,82.22,0,0,0-10.93,2.58,81.37,81.37,0,0,0-20.28,9.47,82.52,82.52,0,0,0-9,6.73c-1.41,1.27-2.89,2.48-4.24,3.82l-2.07,2-2,2c-2.67,2.71-5.15,5.6-7.56,8.54s-4.64,6-6.71,9.22a119.29,119.29,0,0,0-10.73,20.06l-1.1,2.63-1,2.67c-.7,1.77-1.24,3.59-1.85,5.39s-1.07,3.62-1.6,5.47l-1.54,5.71L394.4,283l-12.33,45.62-6.19,22.8-1.55,5.7c-.58,2-1.15,4-1.85,6A88.85,88.85,0,0,1,344,403.39c-3.36,2.64-6.51,4.82-9.71,7.15L296,438.18a100.94,100.94,0,0,0-29.46,33.59,102.62,102.62,0,0,0-4.81,10.17c-.38.86-.69,1.75-1,2.63s-.66,1.73-1,2.68l-2,5.57L253.84,504a118,118,0,0,1-4.68,11.39,114.06,114.06,0,0,1-30,38.72c-1.55,1.35-3.2,2.57-4.82,3.84l-4.74,3.53-9.46,7.07-18.95,14.09-37.92,28.16-19,14.08-9.48,7-2.37,1.76-.59.44-.47.38-1.1.91c-1.47,1.23-2.93,2.5-4.38,3.78a321.06,321.06,0,0,0-32.39,33.47,279.85,279.85,0,0,0-27,37.88,224.68,224.68,0,0,0-10.71,20.6c-.77,1.77-1.62,3.52-2.33,5.31l-2.17,5.37-2,5.45c-.67,1.81-1.19,3.67-1.79,5.5-.28.92-.6,1.82-.86,2.77L26,758.34c-.51,1.89-1,3.77-1.61,5.66l-3.52,11.34c-1.17,3.78-2.39,7.57-3.44,11.29s-2.24,7.46-3.11,11.26A287.62,287.62,0,0,0,6.18,890.7,280.91,280.91,0,0,0,13.51,937,300.54,300.54,0,0,0,28.33,981.5c6.16,14.4,13.28,28.49,22.53,41.15a113,113,0,0,0,15.54,17.59A72.59,72.59,0,0,0,86,1053.17a72.73,72.73,0,0,1-20.1-12.36,115.41,115.41,0,0,1-16.25-17.25C40,1011,32.39,997,25.79,982.61a293.31,293.31,0,0,1-16-44.69,287.42,287.42,0,0,1-8.47-46.8,292.47,292.47,0,0,1,6.63-94.79c.82-3.9,1.95-7.72,3-11.57s2.17-7.6,3.28-11.36l3.35-11.28c.58-1.86,1.06-3.79,1.55-5.71l.75-2.88c.24-1,.57-1.92.85-2.88.6-1.92,1.12-3.87,1.8-5.76l2-5.69,2.18-5.61c.72-1.87,1.57-3.69,2.35-5.54A236.42,236.42,0,0,1,39.79,706.6,288.61,288.61,0,0,1,67.1,667.27a324.4,324.4,0,0,1,33-34.65c1.49-1.34,3-2.66,4.53-4l1.17-1,.67-.55.6-.45,2.36-1.77,9.43-7.12,18.88-14.24,37.75-28.47,18.9-14.21,9.45-7.1,4.73-3.54c1.47-1.17,3-2.29,4.41-3.53a104.54,104.54,0,0,0,27.34-35.49,109.77,109.77,0,0,0,4.26-10.47l3.9-11.15,1.95-5.58c.31-.91.69-1.91,1-2.86s.7-1.94,1.11-2.89a112.7,112.7,0,0,1,5.26-11.18,110.74,110.74,0,0,1,32.26-37l38.41-27.58c3.18-2.3,6.51-4.61,9.35-6.83a77.55,77.55,0,0,0,8.18-7.52,78.67,78.67,0,0,0,17.24-28.28c.63-1.75,1.13-3.52,1.66-5.32l1.57-5.7,6.24-22.79,12.53-45.57,6.31-22.77,1.57-5.69c.57-1.93,1.13-3.92,1.76-5.85s1.27-3.88,2-5.77l1.09-2.86,1.19-2.82a129.45,129.45,0,0,1,11.68-21.45c2.25-3.4,4.73-6.64,7.27-9.83s5.28-6.2,8.17-9.08l2.15-2.17,2.23-2.09c1.46-1.42,3-2.7,4.57-4a92.33,92.33,0,0,1,10-7.35,88.12,88.12,0,0,1,22.49-10.26,90.8,90.8,0,0,1,12.08-2.69c2-.32,4.12-.53,6.12-.73l5.88-.51,23.54-2.06,23.54-2c1.94-.19,4-.31,6-.46s4-.17,6-.26,4,0,6,0,4,.07,6,.21A162.14,162.14,0,0,1,587,163a157.27,157.27,0,0,1,23.16,6.69c3.78,1.38,7.48,3,11.13,4.63l10.73,5,21.39,10,21.4,10,5.35,2.5,5.38,2.62c1.78.9,3.54,1.85,5.31,2.77s3.47,2,5.2,2.95a190,190,0,0,1,53.57,47l3.59,4.76,3.48,4.78,6.94,9.56,27.74,38.26Z"/><path class="cls-2" d="M290.16,495.9q-7.52,20.14-13.38,40.73c-4,13.69-7.4,27.52-10.32,41.42s-5.27,27.9-6.86,42a352.08,352.08,0,0,0-2.42,42.28c.15,28.14,4.08,56.37,14,82.68a181.06,181.06,0,0,0,19.3,37.47,176.08,176.08,0,0,0,12.87,16.91l3.52,4c1.18,1.33,2.45,2.58,3.67,3.89,2.39,2.66,5.07,5,7.58,7.6a162.25,162.25,0,0,1-16.58-13.79c-1.36-1.2-2.57-2.54-3.84-3.82s-2.54-2.57-3.73-3.94l-3.61-4.06-3.45-4.2a172,172,0,0,1-12.36-17.95,176.41,176.41,0,0,1-9.93-19.47,197.31,197.31,0,0,1-7.45-20.58,207.63,207.63,0,0,1-5.08-21.28,245.65,245.65,0,0,1-3.93-43.44q0-10.91.71-21.76c.54-7.24,1.27-14.45,2.26-21.62a372.25,372.25,0,0,1,8.44-42.5,420,420,0,0,1,13-41.2A330.67,330.67,0,0,1,290.16,495.9Z"/><path class="cls-2" d="M543.84,943.56c-3.79-8-7.28-15.91-10.9-23.71s-7.29-15.47-11.21-23c-1-1.88-2-3.76-3-5.6s-2.07-3.68-3.1-5.53c-2.11-3.66-4.35-7.24-6.64-10.81s-4.77-7-7.32-10.46-5.34-6.74-8.18-10.18a59.41,59.41,0,0,1,11.34,7.08,86.06,86.06,0,0,1,9.77,9.23,104.16,104.16,0,0,1,8.25,10.6c1.24,1.86,2.46,3.74,3.6,5.66s2.2,3.88,3.27,5.84a133,133,0,0,1,9.84,24.71,124.81,124.81,0,0,1,3,12.93A82.48,82.48,0,0,1,543.84,943.56Z"/><path class="cls-2" d="M553.16,1010.71a25.8,25.8,0,0,0-2.11,7.59,32.89,32.89,0,0,0-.14,7.74,38.34,38.34,0,0,0,1.5,7.53c.32,1.23.82,2.41,1.25,3.61s1,2.34,1.58,3.48a63.37,63.37,0,0,0,8.47,12.73c.85,1,1.67,1.94,2.54,2.89l2.65,2.79c1.87,1.78,3.69,3.6,5.66,5.27,3.84,3.45,8,6.54,12.19,9.61,2.16,1.46,4.27,3,6.46,4.38l3.29,2.11c1.09.71,2.2,1.4,3.33,2l3.36,2c1.12.68,2.24,1.34,3.39,2l6.94,3.89a77,77,0,0,1,33,37.28c1.1,2.6,2,5.12,2.9,7.73s1.66,5.24,2.36,7.89,1.3,5.36,1.8,8.07.87,5.45,1.1,8.21c.15,1.37.2,2.76.28,4.14s.09,2.77,0,4.16a69.85,69.85,0,0,1-.57,8.3,50.22,50.22,0,0,0,0,15.14,89.59,89.59,0,0,0,3.59,15.22,31.89,31.89,0,0,0,3.26,7,10.3,10.3,0,0,0,5.85,4.84,8.13,8.13,0,0,1-3.83-1.31,15.14,15.14,0,0,1-3.11-2.71,33.61,33.61,0,0,1-4.47-6.87,62.67,62.67,0,0,1-3.17-7.52c-.91-2.55-1.72-5.14-2.44-7.75a54.69,54.69,0,0,1-1.58-16.6,78.55,78.55,0,0,0-.9-15.23,115.81,115.81,0,0,0-9-29.33c-1-2.29-2.2-4.5-3.43-6.69s-2.62-4.27-4.12-6.28-3.05-4-4.69-5.85a73.61,73.61,0,0,0-5.29-5.31,69.22,69.22,0,0,0-12-8.87l-6.89-4c-2.35-1.33-4.6-2.85-6.89-4.29a154.92,154.92,0,0,1-25.56-20.22c-7.77-7.66-14.57-16.7-18.54-27.09-.47-1.31-.88-2.64-1.27-4s-.7-2.68-.9-4.06a35.22,35.22,0,0,1-.59-8.26A29,29,0,0,1,553.16,1010.71Z"/><path class="cls-2" d="M206.77,846.59q-13,14.8-26.13,29.45t-26.35,29.24a124.56,124.56,0,0,0-12,15.07A121.27,121.27,0,0,0,126,954.7c-.48,1.51-.84,3-1.27,4.58s-.73,3.07-1.09,4.64l-2.12,9.61-8.74,38.39c-3,12.8-5.92,25.57-9.25,38.35-.83,3.21-1.66,6.39-2.6,9.65-.23.82-.45,1.61-.74,2.49l-.41,1.29-.21.66-.42,1-.45,1-.11.24c-.08.14,0,.08,0,0a2.63,2.63,0,0,0,.27-.56c0-.1.06-.2.08-.3s0,0,0,0a.06.06,0,0,1,0,0,.67.67,0,0,0,0,.19c0,.48,0,1.18,0,1.87,0,2.94.28,6.16.56,9.35s.62,6.42,1,9.64c.72,6.46,1.53,12.94,2.38,19.41l2.56,19.44L108.1,1145l1.39,9.72.69,4.86c.25,1.53.46,3,.78,4.51a84.26,84.26,0,0,0,14.51,33.19c.91,1.22,1.82,2.44,2.79,3.61.46.58,1,1.21,1.51,1.84l1.58,1.89,6.29,7.55,12.59,15.11,12.54,15.15,3.13,3.78c.91,1.08,2,2.32,3.07,3.47,2.14,2.35,4.36,4.66,6.62,6.93a293.93,293.93,0,0,0,28.76,25.62c5.05,4,10.27,7.73,15.59,11.31s10.79,6.93,16.36,10.1l4.18,2.35,4.26,2.22c1.41.76,2.84,1.45,4.29,2.13s2.88,1.4,4.33,2.06c2.93,1.25,5.83,2.61,8.82,3.72,1.49.56,3,1.18,4.47,1.71l4.52,1.56c1.5.54,3,1,4.56,1.42s3,.94,4.59,1.33c3.09.73,6.16,1.61,9.3,2.14a151.7,151.7,0,0,0,18.88,2.61l-.94.07c11.38-1.84,22.7-3.4,34.09-4.77s22.79-2.39,34.23-3.15a334.68,334.68,0,0,1,34.41-.71,141,141,0,0,1,17.16,1.54,67.4,67.4,0,0,1,8.43,1.85l2.06.64c.68.22,1.33.54,2,.81a26.92,26.92,0,0,1,3.8,2,26.39,26.39,0,0,0-3.94-1.63c-.68-.21-1.34-.46-2-.62l-2.08-.47a68,68,0,0,0-8.41-1.16,163.36,163.36,0,0,0-17-.27c-5.67.16-11.34.56-17,1.07s-11.31,1.09-16.95,1.79c-11.28,1.36-22.52,3.11-33.74,5s-22.43,3.9-33.5,6.19l-.4.09-.54,0a152.59,152.59,0,0,1-39.87-6.5l-4.83-1.49c-1.6-.51-3.18-1.11-4.77-1.66-3.2-1.07-6.29-2.39-9.42-3.62-1.55-.65-3.08-1.35-4.62-2s-3.08-1.35-4.59-2.1l-4.54-2.18-4.46-2.33c-5.92-3.16-11.71-6.56-17.32-10.21s-11.14-7.44-16.48-11.47a306.11,306.11,0,0,1-30.45-26.11q-3.59-3.53-7-7.22c-1.16-1.27-2.27-2.45-3.48-3.87l-3.18-3.76-12.69-15-12.66-15.07-6.33-7.53-1.58-1.89c-.52-.62-1-1.25-1.61-1.95-1.13-1.36-2.18-2.76-3.23-4.17a95.66,95.66,0,0,1-16.7-38.35c-.36-1.71-.61-3.48-.88-5.18l-.68-4.88-1.33-9.76-2.54-19.55c-1.66-13-3.21-26.1-4.41-39.27-.3-3.3-.58-6.61-.81-9.94s-.42-6.68-.41-10.3c0-1,0-1.89.16-3,0-.23.09-.67.15-1l.11-.56a1.69,1.69,0,0,1,.07-.34c.06-.19.12-.39.19-.58a9.54,9.54,0,0,1,.49-1.14c.1-.21.19-.37.16-.33v0c0-.06,0-.1,0-.15a.54.54,0,0,1,.07-.13l.17-.51.36-1c.24-.67.47-1.46.7-2.22.94-3,1.82-6.16,2.7-9.29,1.75-6.27,3.42-12.59,5.12-18.91l5.07-19,9.93-38,2.48-9.51c.45-1.61.9-3.27,1.38-4.89s1-3.24,1.57-4.83a133.21,133.21,0,0,1,8.07-18.58,126,126,0,0,1,24.18-32.05q14-13.84,28.07-27.59T206.77,846.59Z"/><path class="cls-2" d="M660.29,1179.06a160.25,160.25,0,0,1,16.74-8.62,182.84,182.84,0,0,1,17.59-6.84,156.38,156.38,0,0,1,37-7.64,110.55,110.55,0,0,1,37.89,3.52,90.29,90.29,0,0,1,17.87,7.06l4.24,2.31c1.36.85,2.7,1.74,4.06,2.6l2,1.31,1.92,1.45,3.85,2.91.64.49.2.85a18.6,18.6,0,0,1,.36,2.18c.07.7.11,1.39.12,2.09a20.46,20.46,0,0,1-.36,4.19,17.59,17.59,0,0,1-3.53,7.84,19.13,19.13,0,0,1-6.74,5.27,30,30,0,0,1-7.8,2.4c-10.54,1.7-20.79-.17-30.47-2.22a81.58,81.58,0,0,0-14.11-1.85,35.8,35.8,0,0,0-13.3,1.74,14.43,14.43,0,0,0-8.64,7.84,18.1,18.1,0,0,0-1.38,6,22.93,22.93,0,0,0,0,3.21c0,.53.09,1.07.16,1.59l.12.78c0,.23.1.54.13.65l-.7-1.43c.17.2.48.55.75.83l.87.89c.6.58,1.22,1.15,1.86,1.7a38.33,38.33,0,0,0,4,3,31.43,31.43,0,0,0,8.93,4.13c.79.17,1.57.41,2.36.54s1.58.26,2.38.31l2.44.1c1,0,2,0,2.93.07,3.86.15,7.64.54,11.4,1.06a161.45,161.45,0,0,1,43.52,12.66A157.6,157.6,0,0,1,838,1268.41a167,167,0,0,1,29.91,34.11l.5.75.15.85c.08.51.09.66.12,1s0,.48,0,.72c0,.47,0,.92,0,1.37a16.82,16.82,0,0,1-.33,2.59,20.9,20.9,0,0,1-1.63,4.78,24.59,24.59,0,0,1-5.85,7.54,44.16,44.16,0,0,1-15.32,8.37,93.63,93.63,0,0,1-16.15,3.68,158,158,0,0,1-16.17,1.39l-.65,0-.66-.17c-14.62-3.79-29.41-7.33-44.19-10.64s-29.64-6.4-44.53-9.15q-11.16-2-22.36-3.85c-7.46-1.16-14.94-2.21-22.42-3.08s-15-1.49-22.41-1.75-14.9-.12-21.79,1.2l-.37.07-.64.13-.88.25c-.59.15-1.2.44-1.8.64s-1.19.56-1.79.83-1.16.67-1.75,1l-.87.51-.83.6-1.66,1.2-1.56,1.36a16.92,16.92,0,0,0-1.53,1.41l-1.44,1.53a14.94,14.94,0,0,0-1.4,1.57c-.86,1.12-1.77,2.2-2.6,3.36l-2.32,3.61a15.81,15.81,0,0,0-1.06,1.89l-1,1.92-1,1.92c-.32.65-.57,1.34-.86,2l-1.7,4c-.54,1.36-.94,2.79-1.42,4.18s-1,2.78-1.35,4.21c-.7,2.88-1.5,5.73-2.12,8.64l-1.6,8.8-.24,1.35-.9.73c-.67.54-1.15.88-1.73,1.27s-1.12.72-1.7,1.05a31.17,31.17,0,0,1-3.56,1.79,28,28,0,0,1-7.77,2.1,23.42,23.42,0,0,1-8.21-.44,24.38,24.38,0,0,1-7.5-3.23,29.77,29.77,0,0,1-6-5.11,46.55,46.55,0,0,1-4.69-6.06,73.64,73.64,0,0,1-6.61-13.31c-.24-.61-.44-1.05-.65-1.55a11.86,11.86,0,0,0-.69-1.44,28.88,28.88,0,0,0-1.65-2.77,36.36,36.36,0,0,0-4.32-5,57,57,0,0,0-11.06-8,132.46,132.46,0,0,0-25.94-10.67c-18.08-5.52-36.89-8.75-55.73-11.3-9.43-1.25-18.91-2.22-28.4-3s-19-1.45-28.54-1.77a563.63,563.63,0,0,1,57.2,2.49c9.52.89,19,2.06,28.47,3.62a276,276,0,0,1,28.15,6,129.94,129.94,0,0,1,27.15,10.37,61.82,61.82,0,0,1,12.26,8.44,41.75,41.75,0,0,1,5.14,5.7,31.31,31.31,0,0,1,2.09,3.31,14.51,14.51,0,0,1,.89,1.76l.78,1.74a68.2,68.2,0,0,0,6.37,12.13,40.48,40.48,0,0,0,4.17,5.14,24.54,24.54,0,0,0,4.93,4,17.13,17.13,0,0,0,11.61,2.54,21.42,21.42,0,0,0,5.95-1.74,25.83,25.83,0,0,0,2.81-1.46c.45-.27.89-.56,1.32-.86a12,12,0,0,0,1.14-.86l-1.14,2.09,1.51-9.22c.6-3.06,1.39-6.1,2.08-9.15.38-1.52.91-3,1.36-4.52s.9-3,1.45-4.5l1.77-4.42c.3-.73.57-1.48.9-2.2l1.08-2.15a58.54,58.54,0,0,1,11-16A19.55,19.55,0,0,1,617,1309l1.86-1.66,2-1.5,1-.74c.35-.23.72-.45,1.09-.67.74-.42,1.44-.9,2.21-1.28s1.55-.76,2.34-1.11,1.62-.67,2.5-.92c.44-.13.86-.27,1.32-.38l.72-.16.38-.08.49-.08-.37.06c8.06-1.62,15.89-1.75,23.65-1.61s15.45.77,23.09,1.56c15.27,1.62,30.4,3.91,45.44,6.64s30,5.77,44.88,9.06,29.72,6.78,44.56,10.57l-1.31-.14c5.13-.23,10.23-.64,15.24-1.33a84.61,84.61,0,0,0,14.58-3.26,35.73,35.73,0,0,0,12.25-6.52,16,16,0,0,0,3.81-4.8,11.83,11.83,0,0,0,.92-2.66,8.84,8.84,0,0,0,.17-1.32c0-.21,0-.41,0-.61s0-.19,0-.25,0-.22,0,0l.65,1.6A157.93,157.93,0,0,0,832.3,1275a153.56,153.56,0,0,0-77.23-35.77c-3.54-.52-7.11-.93-10.63-1.1q-1.32-.07-2.61-.09c-1,0-2.07-.1-3.09-.16s-2.07-.29-3.11-.44-2-.48-3-.72a38,38,0,0,1-11-5.25,44.9,44.9,0,0,1-4.76-3.7c-.75-.66-1.47-1.36-2.19-2.07-.35-.37-.7-.73-1-1.11s-.66-.74-1.07-1.25l-.53-.65-.18-.78c-.1-.49-.15-.79-.22-1.17s-.1-.7-.14-1c-.08-.7-.15-1.39-.18-2.09a29.33,29.33,0,0,1,.07-4.19,25.09,25.09,0,0,1,2.09-8.33,20.22,20.22,0,0,1,5.28-7.09,23.53,23.53,0,0,1,7.5-4.29,41.93,41.93,0,0,1,15.91-1.89,86.41,86.41,0,0,1,15.18,2.23l3.61.8c1.18.25,2.35.54,3.53.74s2.37.45,3.55.63l3.54.51a53.68,53.68,0,0,0,14,.09,24.72,24.72,0,0,0,6.35-1.77,13.73,13.73,0,0,0,4.93-3.64,12.27,12.27,0,0,0,2.6-5.46,15.24,15.24,0,0,0,.35-3.17c0-.54,0-1.08-.06-1.61s-.12-1.12-.19-1.48l.83,1.34a91.82,91.82,0,0,0-31.91-17.62,106.71,106.71,0,0,0-36.56-4.48,156.14,156.14,0,0,0-36.74,6.24A182.07,182.07,0,0,0,660.29,1179.06Z"/><path class="cls-2" d="M752,263a222.65,222.65,0,0,1,21.56-6c3.62-.9,7.28-1.59,10.93-2.39l11-2.1c14.7-2.61,29.51-4.57,44.36-6.09L851,245.34l11.16-.85,5.59-.42,5.58-.32,11.18-.63c3.73-.24,7.46-.28,11.19-.41l11.19-.35,22.38-.29,22.38.29,11.19.34c3.73.14,7.46.17,11.19.41l11.18.63,5.58.32,5.59.42,11.16.84,11.15,1.12,5.57.56,5.56.67c3.7.46,7.41.84,11.1,1.4l11.08,1.62,11,1.84,11,2.11c3.65.8,7.31,1.48,10.93,2.39a219.83,219.83,0,0,1,21.56,6c-3.62-.89-7.28-1.55-10.93-2.24l-5.49-1-5.51-.88c-3.66-.59-7.35-1.07-11-1.62l-11-1.38-11.07-1.25-11.08-1.05c-3.69-.35-7.39-.61-11.08-.93l-5.55-.46-5.55-.36c-14.8-1-29.62-1.69-44.45-2.14l-22.24-.54-22.26-.13-22.26.12-22.24.54c-14.83.45-29.65,1.13-44.45,2.14l-5.55.36-5.55.46c-3.69.32-7.39.58-11.09.93l-11.08,1L796,255.92l-11,1.38c-3.66.55-7.35,1-11,1.63l-5.5.87-5.49,1C759.28,261.45,755.62,262.12,752,263Z"/><path class="cls-3" d="M843.1,1279.05l4.84-2.1a234.88,234.88,0,0,1,165.7-8l9.43,3"/><ellipse class="cls-4" cx="1597.31" cy="1036.76" rx="88.78" ry="105.91"/><ellipse class="cls-4" cx="1414.8" cy="1185.88" rx="63.09" ry="42.83" transform="translate(-135.06 182.94) rotate(-7.06)"/><ellipse class="cls-4" cx="457.57" cy="1142.67" rx="63.09" ry="42.83" transform="translate(-137.01 64.92) rotate(-7.06)"/><ellipse class="cls-4" cx="1700.07" cy="722.64" rx="29.57" ry="43.57" transform="translate(-63.03 1273.95) rotate(-40.39)"/><ellipse class="cls-4" cx="1383.91" cy="234.09" rx="29.57" ry="43.57" transform="translate(178.2 952.61) rotate(-40.39)"/><ellipse class="cls-4" cx="141.27" cy="732.49" rx="35.37" ry="24.01" transform="translate(-563.72 488.59) rotate(-60)"/><ellipse class="cls-4" cx="474.63" cy="245.57" rx="35.37" ry="24.01" transform="translate(24.65 533.83) rotate(-60)"/><ellipse class="cls-4" cx="252.66" cy="1036.76" rx="88.78" ry="105.91"/><path class="cls-4" d="M881.44,495.9h82.93a27,27,0,0,1,24.53,38.31l-35,76a27,27,0,0,1-47.37,3.12l-47.94-76A27,27,0,0,1,881.44,495.9Z"/><path class="cls-2" d="M1032.49,701.07a57.13,57.13,0,0,0-5.71,3.72,45.73,45.73,0,0,0-4.66,3.86,52.43,52.43,0,0,0-7.31,8.5,115.41,115.41,0,0,0-6.14,10.08c-2.09,3.63-4,7.56-6.83,11.69a29.07,29.07,0,0,1-1.42-14.32,31.68,31.68,0,0,1,.72-3.59c.16-.59.32-1.19.5-1.77s.41-1.17.63-1.75a33.75,33.75,0,0,1,1.54-3.42,32.81,32.81,0,0,1,2-3.24,26.68,26.68,0,0,1,11.9-9.6,22.47,22.47,0,0,1,7.45-1.57A15.41,15.41,0,0,1,1032.49,701.07Z"/><path class="cls-2" d="M854.38,701.07a15.45,15.45,0,0,1,7.34-1.41,22.47,22.47,0,0,1,7.45,1.57,26.6,26.6,0,0,1,11.89,9.6,32.91,32.91,0,0,1,2,3.24,33.75,33.75,0,0,1,1.54,3.42c.22.58.44,1.16.63,1.75s.34,1.18.5,1.77a31.68,31.68,0,0,1,.72,3.59A29,29,0,0,1,885,738.92c-2.81-4.13-4.73-8.06-6.82-11.69a115.41,115.41,0,0,0-6.14-10.08,52.43,52.43,0,0,0-7.31-8.5,46.85,46.85,0,0,0-4.66-3.86A56.2,56.2,0,0,0,854.38,701.07Z"/><path class="cls-5" d="M1145.59,952.39c-178.17,73.83-345.55,31.41-426.92,1-9.51-3.55-16.94,8.59-9.46,15.44,54.26,49.65,146.73,136.85,190,192.71a41.79,41.79,0,0,0,62.89,3.58l193.55-197.74C1162.69,960.21,1154.84,948.55,1145.59,952.39Z"/><path class="cls-6" d="M1029.73,256.37,922.9,0,814.06,256.27a28.53,28.53,0,0,0-1.67,17.39c7.89,34.88,53.89,61.64,109.46,61.64s101.64-26.81,109.47-61.72A28.61,28.61,0,0,0,1029.73,256.37Z"/><path class="cls-7" d="M921.84,225.92c0-16.23-13.16-24-29.4-24-.41,0-.81,0-1.21,0-21,.85-30.86,26.61-16.23,41.74l42,43.43a6.75,6.75,0,0,0,9.7,0l42-43.43c14.64-15.13,4.82-40.89-16.22-41.74-.4,0-.81,0-1.21,0-16.24,0-29.4,7.74-29.4,24"/><ellipse class="cls-8" cx="942.09" cy="126.81" rx="16.6" ry="29.16" transform="translate(6.58 295.42) rotate(-17.88)"/><path class="cls-9" d="M1171,502a155.52,155.52,0,0,1,9.6-13.87q5.14-6.7,10.8-13a230.13,230.13,0,0,1,24.45-23.59,182.38,182.38,0,0,1,28.38-19.5,146.24,146.24,0,0,1,15.83-7.52,121.33,121.33,0,0,1,17-5.36,97.45,97.45,0,0,1,18-2.32,80.38,80.38,0,0,1,18.28,1.59,74.43,74.43,0,0,1,17.37,5.94c1.35.71,2.74,1.35,4,2.12l3.9,2.34,3.71,2.59c1.24.86,2.36,1.85,3.55,2.76.57.48,1.18.92,1.73,1.42l1.65,1.51c1.08,1,2.21,2,3.2,3.07l3.07,3.19c1,1.1,1.9,2.23,2.84,3.35s1.83,2.27,2.7,3.44,1.78,2.29,2.57,3.5c1.58,2.43,3.23,4.78,4.63,7.29.71,1.25,1.44,2.47,2.13,3.73l1.95,3.8c.65,1.27,1.28,2.54,1.85,3.84l1.72,3.89c1.13,2.59,2.08,5.26,3.08,7.89s1.77,5.35,2.56,8a267.18,267.18,0,0,0-19.7-26.62,126.05,126.05,0,0,0-11.14-11.58,95.11,95.11,0,0,0-12.32-9.64,69.32,69.32,0,0,0-42.75-11.67,84.11,84.11,0,0,0-15,2.13,112.39,112.39,0,0,0-14.85,4.48,157.36,157.36,0,0,0-14.52,6.23c-4.78,2.3-9.47,4.88-14.13,7.55s-9.23,5.58-13.75,8.58c-9.06,6-17.89,12.47-26.58,19.24S1179.54,494.62,1171,502Z"/><path class="cls-9" d="M687.88,501.46c-8.51-7.33-17-14.4-25.75-21.17S644.61,467,635.54,461.05q-6.78-4.5-13.74-8.58c-4.66-2.67-9.35-5.25-14.14-7.55a157.19,157.19,0,0,0-14.51-6.23,112.85,112.85,0,0,0-14.85-4.48,84.24,84.24,0,0,0-15-2.13,70.57,70.57,0,0,0-14.9.72,69.64,69.64,0,0,0-27.85,10.95,93.67,93.67,0,0,0-12.33,9.64A127.39,127.39,0,0,0,497.05,465a265.55,265.55,0,0,0-19.69,26.62c.79-2.69,1.67-5.36,2.55-8s1.95-5.3,3.08-7.89l1.73-3.89c.56-1.3,1.19-2.57,1.84-3.84l2-3.8c.68-1.26,1.42-2.48,2.13-3.73,1.39-2.51,3.05-4.86,4.63-7.29.79-1.21,1.71-2.33,2.57-3.51s1.73-2.33,2.7-3.43,1.87-2.25,2.84-3.35l3.06-3.19c1-1.09,2.13-2.06,3.21-3.07l1.65-1.51c.55-.5,1.15-.94,1.73-1.42,1.18-.91,2.31-1.9,3.55-2.76l3.7-2.6,3.91-2.33c1.31-.77,2.69-1.41,4-2.12a74.11,74.11,0,0,1,17.37-5.94,80.29,80.29,0,0,1,18.27-1.59,97.66,97.66,0,0,1,18,2.32,122.63,122.63,0,0,1,17,5.35,147.14,147.14,0,0,1,15.82,7.53A181.44,181.44,0,0,1,643,451a230.23,230.23,0,0,1,24.46,23.59q5.64,6.32,10.79,13A155.62,155.62,0,0,1,687.88,501.46Z"/></g></svg>